HIERARCHY
ROOT Hips
{
	OFFSET 0.000000 0.000000 0.000000
	CHANNELS 6 Xposition Yposition Zposition Zrotation Yrotation Xrotation 
	JOINT LHipJoint
	{
		OFFSET 0.000000 0.000000 0.000000
		CHANNELS 3 Zrotation Yrotation Xrotation
		JOINT LeftUpLeg
		{
			OFFSET 1.363060 -1.794630 0.839290
			CHANNELS 3 Zrotation Yrotation Xrotation
			JOINT LeftLeg
			{
				OFFSET 2.448110 -6.726130 0.000000
				CHANNELS 3 Zrotation Yrotation Xrotation
				JOINT LeftFoot
				{
					OFFSET 2.562200 -7.039590 0.000000
					CHANNELS 3 Zrotation Yrotation Xrotation
					JOINT LeftToeBase
					{
						OFFSET 0.157640 -0.433110 2.322550
						CHANNELS 3 Zrotation Yrotation Xrotation
						End Site
						{
							OFFSET 0.000000 0.000000 0.000000
						}
					}
				}
			}
		}
	}
	JOINT RHipJoint
	{
		OFFSET 0.000000 0.000000 0.000000
		CHANNELS 3 Zrotation Yrotation Xrotation
		JOINT RightUpLeg
		{
			OFFSET -1.305520 -1.794630 0.839290
			CHANNELS 3 Zrotation Yrotation Xrotation
			JOINT RightLeg
			{
				OFFSET -2.542530 -6.985550 0.000000
				CHANNELS 3 Zrotation Yrotation Xrotation
				JOINT RightFoot
				{
					OFFSET -2.568260 -7.056230 0.000000
					CHANNELS 3 Zrotation Yrotation Xrotation
					JOINT RightToeBase
					{
						OFFSET -0.164730 -0.452590 2.363150
						CHANNELS 3 Zrotation Yrotation Xrotation
						End Site
						{
							OFFSET 0.000000 0.000000 0.000000
						}
					}
				}
			}
		}
	}
}
MOTION
Frames: 25
Frame Time: 0.008333
3.218570 17.094968 1.454556 9.221085 29.458145 23.864967 -11.317296 5.891968 -0.873816 -17.754186 23.798945 -11.851755 -3.728366 0.733884 17.928670 -0.262355 -3.867381 4.393826 -0.455400 -0.000000 -66.477900 7.894401 -1.481995 5.307194 17.829168 1.905112 -34.618571 3.484467 2.691910 0.359796 -2.201380 -8.198465 -6.990988 -1.166200 -0.000001 -11.431500
3.305791 17.065719 1.578086 9.563799 29.496938 24.231723 -11.393158 5.968533 -0.745710 -17.676633 23.415001 -11.906455 -3.659147 0.824458 18.763473 -0.285313 -4.346363 4.984348 -0.574000 0.000000 -68.216200 7.871670 -1.469842 5.552464 17.170749 2.696913 -34.393266 3.342944 2.735204 0.277449 -2.334983 -8.712913 -7.186252 -1.184300 0.000000 -6.090800
3.396303 17.040123 1.703159 9.851261 29.532216 24.617208 -11.496791 6.035163 -0.593629 -17.558249 22.991496 -12.084098 -3.575550 0.915398 19.655708 -0.301886 -4.814740 5.663395 -0.708300 -0.000001 -69.982200 7.819801 -1.474851 5.820252 16.518457 3.554277 -34.324191 3.195431 2.752802 0.462019 -2.512580 -9.343294 -7.514625 -1.187100 0.000000 -1.011499
3.489286 17.018978 1.829312 10.077097 29.546721 25.004486 -11.626275 6.091820 -0.425098 -17.394853 22.557607 -12.377071 -3.477666 1.006195 20.603879 -0.311279 -5.275358 6.438196 -0.861900 -0.000000 -71.781300 7.741488 -1.498624 6.095878 15.906594 4.431795 -34.411270 3.048357 2.739438 0.936768 -2.721724 -10.037026 -7.956000 178.831500 -0.000000 -3.362000
3.584292 17.002790 1.956571 10.231667 29.530672 25.388439 -11.782148 6.139189 -0.241368 -17.184307 22.138781 -12.814540 -3.365355 1.098018 21.636623 -0.313224 -5.748070 7.317777 -1.042500 0.000000 -73.595600 7.636170 -1.544711 6.372394 15.382365 5.286070 -34.671597 2.912953 2.693318 1.719311 -2.947901 -10.725843 -8.508100 178.882100 0.000000 -6.883300
3.679035 16.991744 2.083924 10.324969 29.471257 25.733365 -11.952971 6.176988 -0.060097 -16.925330 21.768885 -13.333735 -3.239570 1.189915 22.731116 -0.306706 -6.233914 8.306196 -1.254500 -0.000000 -75.394500 7.517302 -1.605870 6.619557 14.963700 6.048159 -35.041312 2.792806 2.612133 2.784553 -3.170819 -11.332828 -9.161744 178.975699 -0.000000 -9.510800
3.771989 16.985702 2.211120 10.362699 29.364153 26.024130 -12.132036 6.206068 0.110160 -16.620839 21.474423 -13.921349 -3.101614 1.282670 23.895550 -0.291304 -6.754266 9.412746 -1.507800 -0.000001 -77.148200 7.393333 -1.678854 6.822185 14.675208 6.668937 -35.480337 2.695142 2.498523 4.089140 -3.371598 -11.792769 -9.901979 179.116300 -0.000000 -11.335200
3.861251 16.984221 2.337692 10.356953 29.207524 26.242504 -12.309431 6.226755 0.258315 -16.276374 21.273995 -14.543600 -2.953224 1.376578 25.126973 -0.266144 -7.322743 10.641265 -1.811900 -0.000000 -78.797700 7.276005 -1.757476 6.964364 14.522237 7.109621 -35.922166 2.623186 2.358125 5.556330 -3.533556 -12.062112 -10.701413 179.299800 0.000000 -12.477400
3.945051 16.986793 2.463218 10.313689 29.004148 26.372260 -12.477228 6.237710 0.372191 -15.888987 21.180697 -15.168647 -2.796399 1.471818 26.423621 -0.230189 -7.951264 11.984743 -2.176100 -0.000001 -80.233900 7.173449 -1.834816 7.040825 14.493254 7.374597 -36.278178 2.575526 2.204374 7.058620 -3.650252 -12.148748 -11.518825 179.511100 -0.000000 -13.122400
4.021783 16.992598 2.587496 10.244032 28.757495 26.410377 -12.626744 6.238074 0.443911 -15.466403 21.194939 -15.772062 -2.634592 1.567637 27.774104 -0.182615 -8.637394 13.427402 -2.604900 -0.000000 -81.448200 7.093282 -1.904982 7.054290 14.560418 7.484434 -36.480346 2.548524 2.051081 8.474159 -3.719637 -12.077294 -12.304841 179.730000 0.000000 -13.328400
4.090781 17.000698 2.710473 10.164145 28.475200 26.355574 -12.752054 6.229582 0.479052 -15.017415 21.287976 -16.336396 -2.468539 1.664073 29.184230 -0.122640 -9.387444 14.971298 -3.108000 -0.000000 -82.103700 7.041497 -1.966321 6.991293 14.731987 7.383379 -36.521132 2.550494 1.898262 9.800891 -3.727545 -11.789305 -13.069505 179.954700 0.000000 -13.303400
4.151161 17.010397 2.832092 10.070265 28.165437 26.216533 -12.849327 6.207781 0.469702 -14.537827 21.447817 -16.850084 -2.303330 1.759153 30.634126 -0.051122 -10.165088 16.552690 -3.669100 -0.000000 -82.241700 7.016032 -2.012613 6.881114 14.944963 7.188651 -36.320511 2.565741 1.771492 10.852669 -3.697933 -11.416235 -13.742962 -179.843800 0.000000 -13.090500
4.202860 17.020778 2.952590 9.979912 27.836471 26.005858 -12.914389 6.174575 0.425330 -14.042494 21.634501 -17.301806 -2.141391 1.851784 32.111539 0.030181 -10.937818 18.140318 -4.272499 -0.000000 -81.723900 7.019762 -2.042632 6.722394 15.185582 6.880108 -35.895600 2.595579 1.670479 11.642039 -3.629077 -10.940768 -14.336709 -179.665500 -0.000000 -12.835000
4.246232 17.031133 3.072241 9.902625 27.496733 25.740920 -12.945902 6.130624 0.354335 -13.542446 21.809326 -17.690559 -1.985394 1.941001 33.603843 0.117793 -11.656222 19.676532 -4.885099 -0.000000 -80.421500 7.051682 -2.055129 6.525998 15.425920 6.483003 -35.258433 2.635016 1.599196 12.153406 -3.530208 -10.395574 -14.847188 -179.514599 0.000000 -12.643100
4.282030 17.040984 3.191428 9.848226 27.153041 25.441298 -12.944181 6.077626 0.266592 -13.051699 21.936512 -18.020782 -1.837211 2.026287 35.097191 0.207270 -12.262509 21.100886 -5.462000 -0.000001 -78.277900 7.110252 -2.050003 6.302393 15.641680 6.017914 -34.438412 2.679042 1.557785 12.399538 -3.410250 -9.807949 -15.278724 -179.391200 -0.000000 -12.602100
4.311281 17.050021 3.310562 9.823649 26.809680 25.124970 -12.911602 6.017725 0.171168 -12.583642 21.989859 -18.300617 -1.697683 2.107527 36.575861 0.294177 -12.696807 22.357043 -5.952401 0.000000 -75.353200 7.192954 -2.028234 6.061868 15.812561 5.506300 -33.470975 2.722480 1.543924 12.409137 -3.277933 -9.204299 -15.638296 -179.293500 -0.000000 -12.764500
4.335237 17.058191 3.430164 9.833226 26.467663 24.814502 -12.852062 5.953107 0.077774 -12.154314 21.948484 -18.551751 -1.566621 2.184986 38.030364 0.374458 -12.902230 23.389534 -6.303300 0.000000 -71.685799 7.295842 -1.992371 5.818388 15.922299 4.978122 -32.403630 2.760206 1.554161 12.220225 -3.142541 -8.613615 -15.933451 -179.218901 -0.000000 -13.143200
4.355299 17.065619 3.550638 9.875379 26.124237 24.525389 -12.770910 5.885398 -0.007028 -11.774175 21.806004 -18.792177 -1.442982 2.258564 39.444046 0.446251 -12.832462 24.168340 -6.472900 -0.000000 -67.578000 7.414109 -1.945685 5.583568 15.962626 4.463136 -31.277711 2.788195 1.583772 11.875177 -3.011486 -8.060269 -16.170546 -179.163800 -0.000001 -13.703800
4.372771 17.072579 3.672284 9.945086 25.773116 24.270018 -12.673903 5.815464 -0.078581 -11.450280 21.564046 -19.040371 -1.325350 2.327930 40.803266 0.509415 -12.456975 24.677860 -6.434300 -0.000000 -63.328301 7.542373 -1.892003 5.368189 15.931488 3.992298 -30.131475 2.803650 1.627660 11.417081 -2.890561 -7.563674 -16.355989 -179.124300 0.000000 -14.381301
4.388854 17.079407 3.795404 10.035246 25.405657 24.060135 -12.566454 5.743577 -0.132880 -11.188762 21.229417 -19.317753 -1.212570 2.392279 42.095732 0.565464 -11.761852 24.919065 -6.179100 0.000000 -59.262401 7.675116 -1.835683 5.182898 15.832579 3.595995 -29.002547 2.805308 1.680899 10.887560 -2.783621 -7.136615 -16.494989 -179.097200 0.000000 -15.092700
4.404428 17.086435 3.919985 10.136008 25.010851 23.895230 -12.452999 5.669192 -0.170426 -10.986584 20.817811 -19.629708 -1.103863 2.450576 43.307608 0.617565 -10.751532 24.910310 -5.717800 0.000000 -55.716100 7.808083 -1.780035 5.031627 15.674425 3.293557 -27.909273 2.793444 1.738585 10.321498 -2.691045 -6.780143 -16.590900 -179.079700 0.000000 -15.742801
4.420072 17.093895 4.045986 10.237790 24.578466 23.774890 -12.336809 5.591627 -0.192100 -10.839447 20.346560 -19.982893 -0.999291 2.501856 44.431090 0.669132 -9.447374 24.670831 -5.075000 -0.000001 -52.855600 7.937752 -1.728272 4.917446 15.468486 3.098588 -26.868286 2.769743 1.796717 9.748125 -2.611409 -6.487468 -16.646597 -179.070200 0.000001 -16.259200
4.436136 17.101872 4.173384 10.331238 24.099808 23.696892 -12.220057 5.510035 -0.199442 -10.741085 19.832851 -20.383466 -0.899664 2.545487 45.462957 0.723420 -7.884004 24.217048 -4.284900 0.000000 -50.696299 8.061437 -1.682988 4.841227 15.228499 3.016603 -25.891111 2.737025 1.852313 9.189611 -2.541715 -6.245002 -16.664346 -179.067800 -0.000000 -16.600500
4.452490 17.110346 4.301827 10.407951 23.568231 23.649403 -12.103464 5.423528 -0.196916 -10.678766 19.295453 -20.821432 -0.806207 2.581049 46.396944 0.783776 -6.108942 23.572700 -3.390700 -0.000000 -49.207900 8.178599 -1.645130 4.797516 14.968302 3.039591 -24.971177 2.698534 1.902946 8.657810 -2.476839 -6.031980 -16.643546 -179.072899 0.000000 -16.739700
4.468857 17.119110 4.431037 10.462122 22.980541 23.621579 -11.986716 5.331497 -0.188120 -10.640335 18.746672 -21.285528 -0.720334 2.608332 47.228368 0.852847 -4.177818 22.761786 -2.438100 -0.000000 -48.274900 8.289901 -1.614811 4.779532 14.700428 3.153192 -24.098836 2.657518 1.947213 8.157038 -2.411538 -5.826935 -16.582424 -179.086299 -0.000000 -16.678600
